<svg width="766" height="441" fill="none" xmlns="http://www.w3.org/2000/svg">
  <g stroke="#570810" stroke-width="24">
    <path d="M-128 220.5L-255 441l127 220.5h256L255 441 128 220.5h-256zM638 220.5L511 441l127 220.5h256L1021 441 894 220.5H638zM-128-220.5L-255 0l127 220.5h256L255 0 128-220.5h-256zM638-220.5L511 0l127 220.5h256L1021 0 894-220.5H638z"/>
    <path d="M255 0L128 220.5 255 441h256l127-220.5L511 0H255zM255-441L128-220.5 255 0h256l127-220.5L511-441H255zM255 441L128 661.5 255 882h256l127-220.5L511 441H255z"/>
  </g>
</svg>
